<?xml version="1.0" encoding="iso-8859-1"?>
<!-- Generator: Adobe Illustrator 19.0.0, SVG Export Plug-In . SVG Version: 6.00 Build 0)  -->
<svg version="1.1" id="Layer_1" xmlns="http://www.w3.org/2000/svg" xmlns:xlink="http://www.w3.org/1999/xlink" x="0px" y="0px"
	 viewBox="0 0 512 512" style="enable-background:new 0 0 512 512;" xml:space="preserve">
<circle style="fill:#FF6838;" cx="256" cy="256" r="256"/>
<path style="fill:#AE4E32;" d="M194.667,451.833l66.992,60.095C400.429,508.917,512,395.493,512,256c0-5.308-0.181-10.572-0.5-15.8
	L363.659,92.359L194.667,451.833z"/>
<path style="fill:#333333;" d="M402.766,187.888c0,77.639-55.885,226.954-136.942,226.954s-156.59-149.315-156.59-226.954
	S174.943,47.311,256,47.311S402.766,110.249,402.766,187.888z"/>
<path style="fill:#1A1A1A;" d="M256,47.311c-0.111,0-0.222,0.004-0.333,0.004v366.734c3.373,0.509,6.76,0.793,10.157,0.793
	c81.057,0,136.942-149.315,136.942-226.954S337.057,47.311,256,47.311z"/>
<circle style="fill:#E0E0E0;" cx="256" cy="390.35" r="77.8"/>
<path style="fill:#C0C0C0;" d="M256,312.551c-0.112,0-0.222,0.008-0.333,0.009v155.59c0.112,0,0.221,0.009,0.333,0.009
	c42.97,0,77.804-34.834,77.804-77.804C333.804,347.385,298.97,312.551,256,312.551z"/>
<path style="fill:#1A1A1A;" d="M256,477.158c-47.863,0-86.804-38.94-86.804-86.804S208.136,303.55,256,303.55
	s86.804,38.94,86.804,86.804S303.863,477.158,256,477.158z M256,321.551c-37.938,0-68.804,30.865-68.804,68.804
	s30.865,68.804,68.804,68.804s68.804-30.865,68.804-68.804S293.938,321.551,256,321.551z"/>
<path d="M256,303.551c-0.111,0-0.222,0.004-0.333,0.004v18.004c0.112-0.001,0.221-0.009,0.333-0.009
	c37.938,0,68.804,30.865,68.804,68.804S293.938,459.158,256,459.158c-0.112,0-0.222-0.008-0.333-0.009v18.004
	c0.111,0,0.222,0.004,0.333,0.004c47.863,0,86.804-38.94,86.804-86.804S303.863,303.551,256,303.551z"/>
<path style="fill:#B9EAFF;" d="M106,200.782c0.003-35.31,24.937-63.934,55.693-63.934s55.686,28.625,55.683,63.935
	s-24.937,63.934-55.693,63.934C130.927,264.717,105.997,236.092,106,200.782z"/>
<path style="fill:#1A1A1A;" d="M161.683,273.717c-17.517,0-33.911-7.748-46.163-21.815c-11.944-13.715-18.521-31.87-18.52-51.121
	c0.003-40.215,29.024-72.933,64.693-72.933c17.516,0,33.91,7.748,46.162,21.815c11.944,13.715,18.521,31.869,18.521,51.12
	C226.373,241,197.352,273.717,161.683,273.717z M161.693,145.848c-25.744,0-46.69,24.644-46.693,54.935
	c-0.001,14.904,5.004,28.86,14.094,39.297c8.782,10.083,20.355,15.637,32.589,15.637c25.744,0,46.69-24.644,46.693-54.935
	c0.001-14.904-5.005-28.86-14.095-39.297C185.5,151.401,173.926,145.848,161.693,145.848z"/>
<path style="fill:#35CCFF;" d="M294.624,200.782c0.003-35.31,24.937-63.934,55.693-63.934s55.686,28.625,55.683,63.935
	s-24.937,63.934-55.693,63.934C319.552,264.717,294.622,236.092,294.624,200.782z"/>
<path d="M350.307,273.717c-17.517,0-33.91-7.748-46.162-21.815c-11.944-13.715-18.521-31.87-18.521-51.12l0,0
	c0.003-40.215,29.024-72.933,64.693-72.933c17.517,0,33.911,7.748,46.163,21.815c11.944,13.715,18.521,31.87,18.52,51.12
	C414.997,241,385.976,273.717,350.307,273.717z M303.624,200.783c-0.001,14.904,5.005,28.86,14.095,39.297
	c8.782,10.083,20.355,15.637,32.588,15.637c25.744,0,46.69-24.644,46.693-54.935c0.001-14.905-5.004-28.86-14.094-39.297
	c-8.782-10.083-20.355-15.637-32.589-15.637C324.573,145.848,303.627,170.492,303.624,200.783L303.624,200.783z"/>
<g>
</g>
<g>
</g>
<g>
</g>
<g>
</g>
<g>
</g>
<g>
</g>
<g>
</g>
<g>
</g>
<g>
</g>
<g>
</g>
<g>
</g>
<g>
</g>
<g>
</g>
<g>
</g>
<g>
</g>
</svg>
